<?xml version="1.0" encoding="UTF-8" standalone="no"?>
<svg
   xmlns:dc="http://purl.org/dc/elements/1.1/"
   xmlns:cc="http://creativecommons.org/ns#"
   xmlns:rdf="http://www.w3.org/1999/02/22-rdf-syntax-ns#"
   xmlns:svg="http://www.w3.org/2000/svg"
   xmlns="http://www.w3.org/2000/svg"
   viewBox="0 0 1280 720"
   height="720"
   width="1280"
   xml:space="preserve"
   id="svg2"
   version="1.1"><metadata
     id="metadata8"><rdf:RDF><cc:Work
         rdf:about=""><dc:format>image/svg+xml</dc:format><dc:type
           rdf:resource="http://purl.org/dc/dcmitype/StillImage" /></cc:Work></rdf:RDF></metadata><defs
     id="defs6"><clipPath
       id="clipPath18"
       clipPathUnits="userSpaceOnUse"><path
         style="clip-rule:evenodd"
         id="path16"
         d="M 0,1.2207e-4 H 960 V 540.00012 H 0 Z" /></clipPath><clipPath
       id="clipPath32"
       clipPathUnits="userSpaceOnUse"><path
         style="clip-rule:evenodd"
         id="path30"
         d="M 1.4305e-5,0 H 960.00001 V 540 H 1.4305e-5 Z" /></clipPath><clipPath
       id="clipPath62"
       clipPathUnits="userSpaceOnUse"><path
         style="clip-rule:evenodd"
         id="path60"
         d="M 1.4305e-5,0 H 960.00001 V 540 H 1.4305e-5 Z" /></clipPath><clipPath
       id="clipPath76"
       clipPathUnits="userSpaceOnUse"><path
         style="clip-rule:evenodd"
         id="path74"
         d="M 1.4305e-5,0 H 960.00001 V 540 H 1.4305e-5 Z" /></clipPath><clipPath
       id="clipPath96"
       clipPathUnits="userSpaceOnUse"><path
         style="clip-rule:evenodd"
         id="path94"
         d="M 1.4305e-5,0 H 960.00001 V 540 H 1.4305e-5 Z" /></clipPath><clipPath
       id="clipPath136"
       clipPathUnits="userSpaceOnUse"><path
         style="clip-rule:evenodd"
         id="path134"
         d="M 1.4305e-5,0 H 960.00001 V 540 H 1.4305e-5 Z" /></clipPath><clipPath
       id="clipPath148"
       clipPathUnits="userSpaceOnUse"><path
         style="clip-rule:evenodd"
         id="path146"
         d="M 1.4305e-5,0 H 960.00001 V 540 H 1.4305e-5 Z" /></clipPath><clipPath
       id="clipPath160"
       clipPathUnits="userSpaceOnUse"><path
         style="clip-rule:evenodd"
         id="path158"
         d="M 1.4305e-5,0 H 960.00001 V 540 H 1.4305e-5 Z" /></clipPath><clipPath
       id="clipPath174"
       clipPathUnits="userSpaceOnUse"><path
         style="clip-rule:evenodd"
         id="path172"
         d="M 1.4305e-5,0 H 960.00001 V 540 H 1.4305e-5 Z" /></clipPath><clipPath
       id="clipPath188"
       clipPathUnits="userSpaceOnUse"><path
         style="clip-rule:evenodd"
         id="path186"
         d="M 1.4305e-5,0 H 960.00001 V 540 H 1.4305e-5 Z" /></clipPath><clipPath
       id="clipPath204"
       clipPathUnits="userSpaceOnUse"><path
         style="clip-rule:evenodd"
         id="path202"
         d="M 1.4305e-5,0 H 960.00001 V 540 H 1.4305e-5 Z" /></clipPath><clipPath
       id="clipPath222"
       clipPathUnits="userSpaceOnUse"><path
         style="clip-rule:evenodd"
         id="path220"
         d="M 1.4305e-5,0 H 960.00001 V 540 H 1.4305e-5 Z" /></clipPath><clipPath
       id="clipPath246"
       clipPathUnits="userSpaceOnUse"><path
         style="clip-rule:evenodd"
         id="path244"
         d="M 1.4305e-5,0 H 960.00001 V 540 H 1.4305e-5 Z" /></clipPath><clipPath
       id="clipPath264"
       clipPathUnits="userSpaceOnUse"><path
         style="clip-rule:evenodd"
         id="path262"
         d="M 1.4305e-5,0 H 960.00001 V 540 H 1.4305e-5 Z" /></clipPath><clipPath
       id="clipPath280"
       clipPathUnits="userSpaceOnUse"><path
         style="clip-rule:evenodd"
         id="path278"
         d="M 1.4305e-5,0 H 960.00001 V 540 H 1.4305e-5 Z" /></clipPath><clipPath
       id="clipPath294"
       clipPathUnits="userSpaceOnUse"><path
         style="clip-rule:evenodd"
         id="path292"
         d="M 1.4305e-5,0 H 960.00001 V 540 H 1.4305e-5 Z" /></clipPath></defs><g
     transform="matrix(1.3333333,0,0,-1.3333333,0,720)"
     id="g10"><g
       id="g12"><g
         clip-path="url(#clipPath18)"
         id="g14"><path
           id="path20"
           style="fill:#ffffff;fill-opacity:1;fill-rule:evenodd;stroke:none"
           d="M 0,6.1035e-5 H 960 V 540.00006 H 0 Z" /></g></g><path
       id="path22"
       style="fill:#4472c4;fill-opacity:1;fill-rule:nonzero;stroke:none"
       d="m 424.34,146.15 v 154.01 h -1 V 146.15 Z m -3.5,1 3,-6 3,6 z m 6,152.01 -3,6 -3,-6 z" /><path
       id="path24"
       style="fill:#ffffff;fill-opacity:1;fill-rule:evenodd;stroke:none"
       d="m 409.56,205.56 h 22.08 v 29.04 h -22.08 z" /><g
       id="g26"><g
         clip-path="url(#clipPath32)"
         id="g28"><text
           id="text36"
           style="font-variant:normal;font-weight:normal;font-size:18px;font-family:Calibri;-inkscape-font-specification:Calibri;writing-mode:lr-tb;fill:#000000;fill-opacity:1;fill-rule:nonzero;stroke:none"
           transform="matrix(1,0,0,-1,416.81,214.18)"><tspan
             id="tspan34"
             y="0"
             x="0">H</tspan></text>
</g></g><path
       id="path38"
       style="fill:none;stroke:#4472c4;stroke-width:0.47999999;stroke-linecap:butt;stroke-linejoin:miter;stroke-miterlimit:10;stroke-dasharray:none;stroke-opacity:1"
       d="M 720.6,415.2 598.8,371.4" /><path
       id="path40"
       style="fill:none;stroke:#4472c4;stroke-width:0.47999999;stroke-linecap:butt;stroke-linejoin:miter;stroke-miterlimit:10;stroke-dasharray:none;stroke-opacity:1"
       d="M 720.6,415.2 726.9,237" /><path
       id="path42"
       style="fill:none;stroke:#4472c4;stroke-width:0.47999999;stroke-linecap:butt;stroke-linejoin:miter;stroke-miterlimit:10;stroke-dasharray:none;stroke-opacity:1"
       d="M 598.8,371.4 726.9,237" /><path
       id="path44"
       style="fill:none;stroke:#4472c4;stroke-width:0.47999999;stroke-linecap:butt;stroke-linejoin:miter;stroke-miterlimit:10;stroke-dasharray:none;stroke-opacity:1"
       d="M 628.2,327.6 720.6,237" /><path
       id="path46"
       style="fill:none;stroke:#4472c4;stroke-width:0.47999999;stroke-linecap:butt;stroke-linejoin:miter;stroke-miterlimit:10;stroke-dasharray:none;stroke-opacity:1"
       d="M 628.2,327.6 595.2,237" /><path
       id="path48"
       style="fill:none;stroke:#4472c4;stroke-width:4.55999994;stroke-linecap:butt;stroke-linejoin:miter;stroke-miterlimit:10;stroke-dasharray:none;stroke-opacity:1"
       d="M 726,348.6 727.8,219" /><path
       id="path50"
       style="fill:#4472c4;fill-opacity:1;fill-rule:nonzero;stroke:none"
       d="m 603.8,371.9 h 114.95 v -1 H 603.8 Z m 1,-3.5 -6,3 6,3 z m 112.95,6 6,-3 -6,-3 z" /><path
       id="path52"
       style="fill:#4472c4;fill-opacity:1;fill-rule:nonzero;stroke:none"
       d="M 736.7,410.2 V 242 h -1 v 168.2 z m -3.5,-1 3,6 3,-6 z m 6,-166.2 -3,-6 -3,6 z" /><path
       id="path54"
       style="fill:#ffffff;fill-opacity:1;fill-rule:evenodd;stroke:none"
       d="M 730.44,317.64 H 765 v 29.16 h -34.56 z" /><g
       id="g56"><g
         clip-path="url(#clipPath62)"
         id="g58"><text
           id="text66"
           style="font-variant:normal;font-weight:normal;font-size:18px;font-family:Calibri;-inkscape-font-specification:Calibri;writing-mode:lr-tb;fill:#000000;fill-opacity:1;fill-rule:nonzero;stroke:none"
           transform="matrix(1,0,0,-1,737.78,326.3)"><tspan
             id="tspan64"
             y="0"
             x="0 8.7840004">TH</tspan></text>
</g></g><path
       id="path68"
       style="fill:#ffffff;fill-opacity:1;fill-rule:evenodd;stroke:none"
       d="m 653.88,356.76 h 34.44 v 29.16 h -34.44 z" /><g
       id="g70"><g
         clip-path="url(#clipPath76)"
         id="g72"><text
           id="text80"
           style="font-variant:normal;font-weight:normal;font-size:18px;font-family:Calibri;-inkscape-font-specification:Calibri;writing-mode:lr-tb;fill:#000000;fill-opacity:1;fill-rule:nonzero;stroke:none"
           transform="matrix(1,0,0,-1,661.13,365.47)"><tspan
             id="tspan78"
             y="0"
             x="0 8.7600002">TI</tspan></text>
</g></g><path
       id="path82"
       style="fill:none;stroke:#172c51;stroke-width:0.95999998;stroke-linecap:butt;stroke-linejoin:miter;stroke-miterlimit:10;stroke-dasharray:none;stroke-opacity:1"
       d="m 624.25,130.44 c -0.35,-8.85 -0.7,-17.7 1.79,-25.2 2.5,-7.5 8.3,-14.8 13.2,-19.8 4.9,-5 11.3,-6.4 16.2,-10.2 4.9,-3.8 10.4,-7.7 13.2,-12.6 2.8,-4.9 2.5,-13.1 3.6,-16.8 1.1,-3.7 2.05,-4.55 3,-5.4" /><path
       id="path84"
       style="fill:none;stroke:#172c51;stroke-width:0.95999998;stroke-linecap:butt;stroke-linejoin:miter;stroke-miterlimit:10;stroke-dasharray:none;stroke-opacity:1"
       d="m 726.23,130.44 c 0.35,-8.85 0.7,-17.7 -1.8,-25.2 -2.49,-7.5 -8.29,-14.8 -13.19,-19.8 -4.9,-5 -11.3,-6.4 -16.2,-10.2 -4.9,-3.8 -10.4,-7.7 -13.2,-12.6 -2.8,-4.9 -2.5,-13.1 -3.6,-16.8 -1.1,-3.7 -2.05,-4.55 -3,-5.4" /><path
       id="path86"
       style="fill:none;stroke:#172c51;stroke-width:0.95999998;stroke-linecap:butt;stroke-linejoin:miter;stroke-miterlimit:10;stroke-dasharray:none;stroke-opacity:1"
       d="m 621.84,126.24 106.2,0.6 v 0" /><path
       id="path88"
       style="fill:#4472c4;fill-opacity:1;fill-rule:nonzero;stroke:none"
       d="m 629.24,134.9 h 92 v -1 h -92 z m 1,-3.5 -6,3 6,3 z m 90,6 6,-3 -6,-3 z" /><g
       id="g90"><g
         clip-path="url(#clipPath96)"
         id="g92"><text
           id="text100"
           style="font-variant:normal;font-weight:normal;font-size:18px;font-family:Calibri;-inkscape-font-specification:Calibri;writing-mode:lr-tb;fill:#000000;fill-opacity:1;fill-rule:nonzero;stroke:none"
           transform="matrix(1,0,0,-1,658.34,137.4)"><tspan
             id="tspan98"
             y="0"
             x="0 9.7919998 18.827999 27.450001">Beam</tspan></text>
</g></g><path
       id="path102"
       style="fill:none;stroke:#172c51;stroke-width:0.95999998;stroke-linecap:butt;stroke-linejoin:miter;stroke-miterlimit:10;stroke-dasharray:none;stroke-opacity:1"
       d="m 192.89,120.47 c -0.16,0.09 -2.5,2.2 -0.98,0.53 1.53,-1.66 5.57,-7 10.12,-10.51 4.55,-3.51 10.39,-7.39 17.17,-10.537 6.79,-3.143 17.91,-6.055 23.54,-8.319 5.63,-2.265 6.33,2.218 10.25,-5.269 3.92,-7.487 9.6,-32.906 13.29,-39.653 3.7,-6.748 5.73,1.109 8.87,-0.832 4.52,0 10.93,0.277 18.27,0.832 l 28.53,0.277 28.52,0.832 c 11.82,0.462 28.07,-0.185 42.37,1.941 14.31,2.126 26.68,4.252 43.48,10.815 16.8,6.562 31.07,13.957 50.41,22.738 19.34,8.781 25.25,15.609 33.5,23.295 8.25,7.69 19.77,14.29 20.43,18.41 3.41,3.56 20.38,6.51 -9.62,5.44 l -174.83,-7.49 z" /><path
       id="path104"
       style="fill:none;stroke:#172c51;stroke-width:0.95999998;stroke-linecap:butt;stroke-linejoin:miter;stroke-miterlimit:10;stroke-dasharray:none;stroke-opacity:1"
       d="m 264.96,44.88 c -4.64,2.297 -9.28,4.594 -13.49,7.875 -4.22,3.282 -9,7.594 -11.81,11.813 -2.81,4.219 -4.22,10.313 -5.06,13.501 -0.85,3.187 -0.75,4.219 0,5.625 0.75,1.406 2.9,2.063 4.5,2.813 1.59,0.75 2.9,1.781 5.06,1.687 2.15,-0.094 5.01,-1.172 7.87,-2.25" /><path
       id="path106"
       style="fill:none;stroke:#4472c4;stroke-width:4.55999994;stroke-linecap:butt;stroke-linejoin:miter;stroke-miterlimit:10;stroke-dasharray:none;stroke-opacity:1"
       d="m 440.16,126.2 164.93,8.2" /><path
       id="path108"
       style="fill:none;stroke:#4472c4;stroke-width:0.47999999;stroke-linecap:butt;stroke-linejoin:miter;stroke-miterlimit:10;stroke-dasharray:none;stroke-opacity:1"
       d="M 605.14,134.4 520.32,106.59" /><path
       id="path110"
       style="fill:none;stroke:#4472c4;stroke-width:0.47999999;stroke-linecap:butt;stroke-linejoin:miter;stroke-miterlimit:10;stroke-dasharray:none;stroke-opacity:1"
       d="M 603.54,135.86 430.8,484.44" /><path
       id="path112"
       style="fill:none;stroke:#4472c4;stroke-width:0.47999999;stroke-linecap:butt;stroke-linejoin:miter;stroke-miterlimit:10;stroke-dasharray:none;stroke-opacity:1"
       d="M 604.41,135.88 432,386.16" /><path
       id="path114"
       style="fill:none;stroke:#4472c4;stroke-width:0.47999999;stroke-linecap:butt;stroke-linejoin:miter;stroke-miterlimit:10;stroke-dasharray:none;stroke-opacity:1"
       d="M 549.16,131.28 433.08,326.04" /><path
       id="path116"
       style="fill:#4472c4;fill-opacity:1;fill-rule:nonzero;stroke:none"
       d="M 500.53,85.308 247.76,83.666 v -1 l 252.78,1.642 z m -0.98,-3.507 5.98,3.039 -6.02,2.961 z m -250.81,4.371 -5.98,-3.039 6.02,-2.961 z" /><path
       id="path118"
       style="fill:#4472c4;fill-opacity:1;fill-rule:nonzero;stroke:none"
       d="m 543.58,106.17 -346.59,-3.73 0.02,-1 346.59,3.73 z m -0.96,-3.51 5.97,3.06 -6.03,2.94 z m -344.65,2.29 -5.97,-3.07 6.03,-2.933 z" /><path
       id="path120"
       style="fill:#4472c4;fill-opacity:1;fill-rule:nonzero;stroke:none"
       d="M 181.94,54.578 V 89.2 h -1 V 54.578 Z m -3.5,1 3,-6 3,6 z m 6,32.622 -3,6 -3,-6 z" /><path
       id="path122"
       style="fill:#4472c4;fill-opacity:1;fill-rule:nonzero;stroke:none"
       d="m 425.31,293.73 -95.19,92.55 0.69,0.71 95.2,-92.54 z m 1.72,3.21 2.21,-6.33 -6.39,2.03 z m -97.94,86.85 -2.21,6.33 6.39,-2.03 z" /><path
       id="path124"
       style="fill:#4472c4;fill-opacity:1;fill-rule:nonzero;stroke:none"
       d="m 425.08,149.3 -209.29,14.73 0.07,1 209.29,-14.73 z m -0.76,3.57 5.78,-3.42 -6.2,-2.57 z m -207.71,8.6 -5.77,3.41 6.2,2.57 z" /><path
       id="path126"
       style="fill:#4472c4;fill-opacity:1;fill-rule:nonzero;stroke:none"
       d="m 447.78,466.25 2.63,-334.5 -1,-0.01 -2.63,334.5 z m -3.49,-1.03 2.95,6.02 3.05,-5.98 z m 8.61,-332.45 -2.95,-6.03 -3.05,5.98 z" /><path
       id="path128"
       style="fill:#4472c4;fill-opacity:1;fill-rule:nonzero;stroke:none"
       d="m 600.58,154.54 -161.9,-1.16 v -1 l 161.91,1.16 z m -0.97,-3.5 5.97,3.04 -6.02,2.96 z m -159.95,4.84 -5.98,-3.04 6.02,-2.96 z" /><g
       id="g130"><g
         clip-path="url(#clipPath136)"
         id="g132"><text
           id="text140"
           style="font-variant:normal;font-weight:normal;font-size:18px;font-family:Calibri;-inkscape-font-specification:Calibri;writing-mode:lr-tb;fill:#000000;fill-opacity:1;fill-rule:nonzero;stroke:none"
           transform="matrix(1,0,0,-1,130.2,65.688)"><tspan
             id="tspan138"
             y="0"
             x="0 11.07 16.92 25.434 30.924">Draft</tspan></text>
</g></g><g
       id="g142"><g
         clip-path="url(#clipPath148)"
         id="g144"><text
           id="text152"
           style="font-variant:normal;font-weight:normal;font-size:18px;font-family:Calibri;-inkscape-font-specification:Calibri;writing-mode:lr-tb;fill:#000000;fill-opacity:1;fill-rule:nonzero;stroke:none"
           transform="matrix(1,0,0,-1,570.24,99.72)"><tspan
             id="tspan150"
             y="0"
             x="0 15.354 23.868 29.628 38.591999">Water</tspan></text>
</g></g><g
       id="g154"><g
         clip-path="url(#clipPath160)"
         id="g156"><text
           id="text164"
           style="font-variant:normal;font-weight:normal;font-size:18px;font-family:Calibri;-inkscape-font-specification:Calibri;writing-mode:lr-tb;fill:#000000;fill-opacity:1;fill-rule:nonzero;stroke:none"
           transform="matrix(1,0,0,-1,579.36,78.12)"><tspan
             id="tspan162"
             y="0"
             x="0 4.086 8.1719999 17.622">line</tspan></text>
</g></g><path
       id="path166"
       style="fill:#ffffff;fill-opacity:1;fill-rule:evenodd;stroke:none"
       d="m 342.84,69.12 h 48.72 v 29.04 h -48.72 z" /><g
       id="g168"><g
         clip-path="url(#clipPath174)"
         id="g170"><text
           id="text178"
           style="font-variant:normal;font-weight:normal;font-size:18px;font-family:Calibri;-inkscape-font-specification:Calibri;writing-mode:lr-tb;fill:#000000;fill-opacity:1;fill-rule:nonzero;stroke:none"
           transform="matrix(1,0,0,-1,350.09,77.664)"><tspan
             id="tspan176"
             y="0"
             x="0 6.48 22.445999">LWL</tspan></text>
</g></g><path
       id="path180"
       style="fill:#ffffff;fill-opacity:1;fill-rule:evenodd;stroke:none"
       d="m 342.24,93.36 h 48.72 v 29.16 h -48.72 z" /><g
       id="g182"><g
         clip-path="url(#clipPath188)"
         id="g184"><text
           id="text192"
           style="font-variant:normal;font-weight:normal;font-size:18px;font-family:Calibri;-inkscape-font-specification:Calibri;writing-mode:lr-tb;fill:#000000;fill-opacity:1;fill-rule:nonzero;stroke:none"
           transform="matrix(1,0,0,-1,349.49,102)"><tspan
             id="tspan190"
             y="0"
             x="0 7.1999998 18.846001">LOA</tspan></text>
</g></g><path
       id="path194"
       style="fill:none;stroke:#4472c4;stroke-width:0.47999999;stroke-linecap:butt;stroke-linejoin:miter;stroke-miterlimit:10;stroke-dasharray:none;stroke-opacity:1"
       d="M 758.37,91.442 102,95.28" /><path
       id="path196"
       style="fill:#ffffff;fill-opacity:1;fill-rule:evenodd;stroke:none"
       d="M 317.64,144.36 H 339.6 V 173.4 H 317.64 Z" /><g
       id="g198"><g
         clip-path="url(#clipPath204)"
         id="g200"><text
           id="text208"
           style="font-variant:normal;font-weight:normal;font-size:18px;font-family:Calibri;-inkscape-font-specification:Calibri;writing-mode:lr-tb;fill:#000000;fill-opacity:1;fill-rule:nonzero;stroke:none"
           transform="matrix(1,0,0,-1,324.84,152.93)"><tspan
             id="tspan206"
             y="0"
             x="0">B</tspan></text>
</g></g><path
       id="path210"
       style="fill:none;stroke:#4472c4;stroke-width:0.47999999;stroke-linecap:butt;stroke-linejoin:miter;stroke-miterlimit:10;stroke-dasharray:none;stroke-opacity:1"
       d="M 423.84,143.38 211.08,157.92" /><path
       id="path212"
       style="fill:none;stroke:#4472c4;stroke-width:4.55999994;stroke-linecap:butt;stroke-linejoin:miter;stroke-miterlimit:10;stroke-dasharray:none;stroke-opacity:1"
       d="m 429.23,138.58 -224.51,15.5" /><path
       id="path214"
       style="fill:#ffffff;fill-opacity:1;fill-rule:evenodd;stroke:none"
       d="m 363.84,321 h 22.08 v 29.16 h -22.08 z" /><g
       id="g216"><g
         clip-path="url(#clipPath222)"
         id="g218"><text
           id="text226"
           style="font-variant:normal;font-weight:normal;font-size:18px;font-family:Calibri;-inkscape-font-specification:Calibri;writing-mode:lr-tb;fill:#000000;fill-opacity:1;fill-rule:nonzero;stroke:none"
           transform="matrix(1,0,0,-1,371.11,329.66)"><tspan
             id="tspan224"
             y="0"
             x="0">G</tspan></text>
</g></g><path
       id="path228"
       style="fill:#4472c4;fill-opacity:1;fill-rule:nonzero;stroke:none"
       d="m 417.5,478.36 v -168.2 h -1 v 168.2 z m -3.5,-1 3,6 3,-6 z m 6,-166.2 -3,-6 -3,6 z" /><path
       id="path230"
       style="fill:none;stroke:#4472c4;stroke-width:0.47999999;stroke-linecap:butt;stroke-linejoin:miter;stroke-miterlimit:10;stroke-dasharray:none;stroke-opacity:1"
       d="m 423.84,483.36 -121.8,-43.8" /><path
       id="path232"
       style="fill:none;stroke:#4472c4;stroke-width:0.47999999;stroke-linecap:butt;stroke-linejoin:miter;stroke-miterlimit:10;stroke-dasharray:none;stroke-opacity:1"
       d="m 302.04,439.56 128.1,-134.4" /><path
       id="path234"
       style="fill:none;stroke:#4472c4;stroke-width:0.47999999;stroke-linecap:butt;stroke-linejoin:miter;stroke-miterlimit:10;stroke-dasharray:none;stroke-opacity:1"
       d="m 331.44,395.76 97.8,-95.89" /><path
       id="path236"
       style="fill:none;stroke:#4472c4;stroke-width:0.47999999;stroke-linecap:butt;stroke-linejoin:miter;stroke-miterlimit:10;stroke-dasharray:none;stroke-opacity:1"
       d="M 331.4,395.76 210.84,158.21" /><path
       id="path238"
       style="fill:#ffffff;fill-opacity:1;fill-rule:evenodd;stroke:none"
       d="m 395.88,385.92 h 34.56 v 29.04 h -34.56 z" /><g
       id="g240"><g
         clip-path="url(#clipPath246)"
         id="g242"><text
           id="text250"
           style="font-variant:normal;font-weight:normal;font-size:18px;font-family:Calibri;-inkscape-font-specification:Calibri;writing-mode:lr-tb;fill:#000000;fill-opacity:1;fill-rule:nonzero;stroke:none"
           transform="matrix(1,0,0,-1,403.15,394.56)"><tspan
             id="tspan248"
             y="0"
             x="0 8.7600002">TH</tspan></text>
</g></g><path
       id="path252"
       style="fill:none;stroke:#4472c4;stroke-width:4.55999994;stroke-linecap:butt;stroke-linejoin:miter;stroke-miterlimit:10;stroke-dasharray:none;stroke-opacity:1"
       d="m 429.24,416.76 1.8,-129.6" /><path
       id="path254"
       style="fill:#4472c4;fill-opacity:1;fill-rule:nonzero;stroke:none"
       d="m 307.04,440.06 h 114.95 v -1 H 307.04 Z m 1,-3.5 -6,3 6,3 z m 112.95,6 6,-3 -6,-3 z" /><path
       id="path256"
       style="fill:#ffffff;fill-opacity:1;fill-rule:evenodd;stroke:none"
       d="m 357,425.04 h 34.56 v 29.04 H 357 Z" /><g
       id="g258"><g
         clip-path="url(#clipPath264)"
         id="g260"><text
           id="text268"
           style="font-variant:normal;font-weight:normal;font-size:18px;font-family:Calibri;-inkscape-font-specification:Calibri;writing-mode:lr-tb;fill:#000000;fill-opacity:1;fill-rule:nonzero;stroke:none"
           transform="matrix(1,0,0,-1,364.3,433.7)"><tspan
             id="tspan266"
             y="0"
             x="0 8.7600002">TI</tspan></text>
</g></g><path
       id="path270"
       style="fill:none;stroke:#4472c4;stroke-width:0.47999999;stroke-linecap:butt;stroke-linejoin:miter;stroke-miterlimit:10;stroke-dasharray:none;stroke-opacity:1"
       d="m 423.84,483.36 6.3,-178.2" /><path
       id="path272"
       style="fill:#ffffff;fill-opacity:1;fill-rule:evenodd;stroke:none"
       d="m 494.16,140.64 h 22.08 v 29.04 h -22.08 z" /><g
       id="g274"><g
         clip-path="url(#clipPath280)"
         id="g276"><text
           id="text284"
           style="font-variant:normal;font-weight:normal;font-size:18px;font-family:Calibri;-inkscape-font-specification:Calibri;writing-mode:lr-tb;fill:#000000;fill-opacity:1;fill-rule:nonzero;stroke:none"
           transform="matrix(1,0,0,-1,501.43,149.26)"><tspan
             id="tspan282"
             y="0"
             x="0">J</tspan></text>
</g></g><path
       id="path286"
       style="fill:#ffffff;fill-opacity:1;fill-rule:evenodd;stroke:none"
       d="m 438.84,225 h 21.96 v 29.04 h -21.96 z" /><g
       id="g288"><g
         clip-path="url(#clipPath294)"
         id="g290"><text
           id="text298"
           style="font-variant:normal;font-weight:normal;font-size:18px;font-family:Calibri;-inkscape-font-specification:Calibri;writing-mode:lr-tb;fill:#000000;fill-opacity:1;fill-rule:nonzero;stroke:none"
           transform="matrix(1,0,0,-1,446.06,233.57)"><tspan
             id="tspan296"
             y="0"
             x="0">I</tspan></text>
</g></g><path
       id="path300"
       style="fill:none;stroke:#4472c4;stroke-width:4.55999994;stroke-linecap:butt;stroke-linejoin:miter;stroke-miterlimit:10;stroke-dasharray:none;stroke-opacity:1"
       d="m 431.7,124.91 -0.9,364.21" /></g></svg>